<svg width="52" height="51" viewBox="0 0 52 51" fill="none" xmlns="http://www.w3.org/2000/svg">
<g opacity="0.2">
<path fill-rule="evenodd" clip-rule="evenodd" d="M12.1028 26.5321C12.1028 18.8644 18.337 12.6262 25.9999 12.6262C33.6629 12.6262 39.897 18.8644 39.897 26.5321C39.897 34.1998 33.663 40.4381 25.9999 40.4381C18.3369 40.4381 12.1028 34.1998 12.1028 26.5321ZM32.4779 22.4793C31.7818 21.8402 30.6531 21.8402 29.957 22.4793L24.9785 27.0495L23.043 25.2727C22.3469 24.6337 21.2183 24.6337 20.5221 25.2727C19.826 25.9118 19.826 26.9479 20.5221 27.5869L23.7181 30.5207C24.4142 31.1598 25.5428 31.1598 26.239 30.5207L32.4779 24.7934C33.174 24.1544 33.174 23.1183 32.4779 22.4793Z" fill="black"/>
<path fill-rule="evenodd" clip-rule="evenodd" d="M47.1887 15.8553C45.0184 19.634 46.1335 24.5228 49.7272 26.9851C51.8874 28.4653 52.2491 30.7822 51.8671 32.4572C51.485 34.1319 50.1547 36.0625 47.5665 36.4582C43.261 37.1165 40.1366 41.0369 40.4532 45.3836C40.6435 47.9967 39.0586 49.7241 37.512 50.4694C35.9654 51.2149 33.6273 51.378 31.7042 49.5996C30.1047 48.1204 28.0528 47.3811 25.9999 47.3811C23.9478 47.3811 21.8947 48.1208 20.2955 49.5996C18.3727 51.3779 16.0347 51.2147 14.488 50.4694C12.9413 49.724 11.3563 47.9965 11.5468 45.3835C11.8634 41.0367 8.73894 37.1163 4.43349 36.4582C1.84522 36.0625 0.514674 34.132 0.13285 32.4572C-0.248973 30.7825 0.112474 28.4655 2.27285 26.9852C5.86657 24.5229 6.98167 19.634 4.81142 15.8554C3.50697 13.5836 4.18587 11.3393 5.25619 9.99607C6.32678 8.65312 8.36244 7.49173 10.8658 8.25846C15.0302 9.53453 19.5454 7.35927 21.1448 3.30523C22.1063 0.868286 24.2834 0 26 0C27.7167 0 29.8938 0.868287 30.8553 3.3051C32.4547 7.35901 36.9703 9.53453 41.1343 8.25833C43.6374 7.49147 45.6734 8.65313 46.7439 9.99594C47.8142 11.3392 48.4931 13.5838 47.1887 15.8553ZM8.91804 26.5322C8.91804 35.9573 16.581 43.6251 26 43.6251C35.4191 43.6251 43.0819 35.9571 43.0821 26.5321C43.0821 17.107 35.4192 9.43921 26 9.43921C16.5809 9.43921 8.91804 17.1072 8.91804 26.5322Z" fill="black"/>
</g>
</svg>
