<svg width="54" height="54" viewBox="0 0 54 54" fill="none" xmlns="http://www.w3.org/2000/svg">
<g opacity="0.2">
<path d="M7.88287 34.6019C7.57718 35.2116 7.69624 35.9487 8.17786 36.4307L8.56471 36.8176C9.68243 35.493 10.9851 34.0556 12.5651 32.476C12.6768 32.3644 12.7917 32.3104 12.9038 32.2074L10.4149 29.7182C8.96805 32.3351 8.1243 34.1232 7.88287 34.6019Z" fill="black"/>
<path d="M21.5143 41.4252C19.9306 43.0089 18.4969 44.3141 17.1798 45.4326L17.7038 45.9567C18.19 46.4428 18.934 46.5598 19.5458 46.2451C20.3653 45.8228 21.6539 45.2163 24.3895 43.6928L21.7833 41.0866C21.6803 41.1991 21.6263 41.3136 21.5143 41.4252Z" fill="black"/>
<path d="M20.6709 33.3214C19.5277 32.1782 16.3125 33.2032 14.8022 34.7131C9.74959 39.7657 7.46759 43.348 6.44298 45.4631C6.14923 46.0692 6.27159 46.7947 6.74785 47.2709C7.22493 47.7484 7.95168 47.8695 8.55812 47.5758C10.6259 46.5718 14.1644 44.3005 19.2772 39.1881C20.9379 37.5266 21.7574 34.4083 20.6722 33.3227L20.6709 33.3214Z" fill="black"/>
<path d="M4.93799 21.0632L0.463402 25.5377C-0.0425185 26.0437 -0.146339 26.8269 0.21209 27.4473C0.561866 28.0595 1.29438 28.3714 1.99146 28.1848C4.40982 27.5363 6.53774 27.2623 7.97063 27.6298C10.0091 24.0056 12.1997 20.6693 14.5196 17.6387C13.1777 16.7785 8.74352 17.2576 4.93799 21.0632Z" fill="black"/>
<path d="M26.7778 53.8302C27.3872 54.1384 28.125 54.0193 28.6075 53.5364L33.0825 49.0618C36.5469 45.5966 37.1566 41.1257 36.3705 39.7081C32.9906 42.2554 29.5666 44.4064 26.372 46.2072C26.5924 47.4518 26.4458 48.6593 25.9246 52.1859C25.8228 52.8686 26.1755 53.529 26.7778 53.8302Z" fill="black"/>
<path d="M31.4086 15.8696C29.5583 17.7203 29.5583 20.7307 31.4086 22.5813C33.2592 24.432 36.27 24.432 38.1207 22.5813C39.9713 20.7307 39.9713 17.7203 38.1207 15.8696C36.27 14.019 33.2592 14.019 31.4086 15.8696Z" fill="black"/>
<path d="M53.9068 1.54317C53.8499 0.760804 53.227 0.142411 52.4471 0.0839086C48.5616 -0.208603 44.6914 0.269303 40.8979 1.42946C41.1834 4.0357 42.5314 6.85616 44.8327 9.15753C47.1617 11.4861 50.0588 12.8337 52.7116 13.0858C53.7333 9.50525 54.2178 5.67046 53.9068 1.54317Z" fill="black"/>
<path d="M42.5957 11.395C39.9631 8.76243 38.3555 5.60496 37.8397 2.5307C28.3397 6.42687 19.2455 14.9352 12.0592 26.8878L15.6295 30.4581C18.0688 29.4677 21.0302 29.2061 22.9085 31.0839C24.7892 32.9651 24.5226 35.9252 23.5326 38.3613L27.2203 42.049C36.4167 36.5065 47.1234 27.7744 51.6763 16.1568C48.527 15.6809 45.2711 14.0705 42.5957 11.395ZM40.3577 24.8188C37.274 27.9026 32.2556 27.9026 29.1715 24.8188C26.0873 21.7347 26.0873 16.7159 29.1715 13.6321C32.2556 10.5484 37.274 10.5484 40.3577 13.6321C43.4419 16.7163 43.4419 21.7347 40.3577 24.8188Z" fill="black"/>
</g>
</svg>
