<svg width="37" height="34" viewBox="0 0 37 34" fill="none" xmlns="http://www.w3.org/2000/svg">
<path d="M36.239 7.99958C35.912 7.56353 35.4541 7.2583 34.9527 7.06207C34.9745 7.45452 34.9745 7.89057 34.8437 8.30482L28.3029 29.8239C28.0631 30.6088 27.1256 31.0667 26.3189 31.0667H6.19514C4.996 31.0667 3.49162 30.805 3.05557 29.5405C2.88115 29.0608 2.90295 28.8646 3.07737 28.603C3.2736 28.3413 3.62244 28.2759 3.90587 28.2759H22.8523C25.6212 28.2759 26.188 27.5346 27.2128 24.1771L33.1867 4.42397C33.4919 3.39925 33.3611 2.37453 32.7942 1.58964C32.2491 0.826552 31.3334 0.368699 30.3087 0.368699H13.717C13.3464 0.368699 12.9757 0.477713 12.6051 0.564923L12.6269 0.499515C9.85796 -0.285375 9.68354 2.70157 8.76783 4.05332C8.41899 4.55478 7.89573 4.99083 7.80852 5.40508C7.74311 5.79753 7.96114 6.16817 7.91753 6.53881C7.78672 7.69435 6.91462 9.76559 6.39136 10.4851C6.06432 10.9211 5.58466 11.1391 5.43205 11.6406C5.30123 11.9894 5.51926 12.4909 5.47565 12.9488C5.36664 13.9735 4.60355 15.9139 4.01488 16.9168C3.79686 17.3093 3.38261 17.6145 3.2736 18.0287C3.16458 18.3994 3.38261 18.879 3.2736 19.2933C3.03377 20.427 2.29248 22.193 1.63841 23.2831C1.28957 23.8718 0.831715 24.2425 0.744505 24.7657C0.7009 25.0274 0.897122 25.3108 0.87532 25.6596C0.853517 26.1829 0.766307 26.6189 0.722702 27.055C0.417467 27.8835 0.417467 28.8428 0.766307 29.8239C1.573 32.0914 3.94948 33.8574 6.17333 33.8574H26.2971C28.1721 33.8574 30.0907 32.4184 30.6358 30.5652L36.6315 10.8121C36.9367 9.80919 36.7841 8.78447 36.239 7.99958ZM13.0411 8.04319L13.499 6.64783C13.6298 6.25538 14.044 5.95014 14.4147 5.95014H27.6706C28.0631 5.95014 28.2811 6.25538 28.1503 6.64783L27.6924 8.04319C27.5616 8.43563 27.1474 8.74087 26.7767 8.74087H13.5208C13.1283 8.74087 12.9103 8.43563 13.0411 8.04319ZM11.2315 13.6246L11.6894 12.2293C11.8202 11.8368 12.2344 11.5316 12.6051 11.5316H25.861C26.2535 11.5316 26.4715 11.8368 26.3407 12.2293L25.8828 13.6246C25.752 14.0171 25.3377 14.3223 24.9671 14.3223H11.7112C11.3187 14.3223 11.1007 14.0171 11.2315 13.6246Z" fill="#EFAC1E"/>
</svg>
