<svg width="70" height="46" viewBox="0 0 70 46" fill="none" xmlns="http://www.w3.org/2000/svg">
<path opacity="0.2" d="M53.5008 21.1667L36.4174 26.5536C35.9412 26.7024 35.465 26.7619 34.9888 26.7619C34.5127 26.7619 34.0365 26.7024 33.5603 26.5536L16.4769 21.1667L15.9412 30.5714C15.7031 34.7679 24.4829 38.1905 34.9888 38.1905C45.4948 38.1905 54.2746 34.7679 54.0365 30.5714L53.5008 21.1667ZM69.2746 11.5238C69.2746 11.1071 69.0067 10.75 68.6198 10.6012L35.2865 0.124995C35.1674 0.0952338 35.0781 0.0952338 34.9888 0.0952338C34.8996 0.0952338 34.8103 0.0952338 34.6912 0.124995L1.35789 10.6012C0.970982 10.75 0.703125 11.1071 0.703125 11.5238C0.703125 11.9405 0.970982 12.2976 1.35789 12.4464L11.2686 15.5417C9.42336 18.131 8.53051 21.881 8.35194 25.3631C7.22098 26.0179 6.41741 27.2381 6.41741 28.6667C6.41741 30.006 7.10194 31.1667 8.1436 31.8512L6.41741 44.7381C6.38765 45.006 6.47694 45.2738 6.65551 45.4821C6.83408 45.6905 7.10194 45.8095 7.36979 45.8095H13.0841C13.3519 45.8095 13.6198 45.6905 13.7984 45.4821C13.9769 45.2738 14.0662 45.006 14.0365 44.7381L12.3103 31.8512C13.3519 31.1667 14.0365 30.006 14.0365 28.6667C14.0365 27.2679 13.2924 26.0774 12.1615 25.4226C12.3996 21.4048 13.59 18.131 15.2865 16.7917L34.6912 22.9226C34.8103 22.9524 34.8996 22.9524 34.9888 22.9524C35.0781 22.9524 35.1674 22.9524 35.2865 22.9226L68.6198 12.4464C69.0067 12.2976 69.2746 11.9405 69.2746 11.5238Z" fill="black"/>
</svg>
