<svg width="32" height="32" viewBox="0 0 32 32" fill="none" xmlns="http://www.w3.org/2000/svg">
<circle cx="16" cy="15.9999" r="16" fill="white"/>
<path d="M18.8603 18.0892C19.556 18.1181 20.1646 18.321 20.7443 18.6688C21.324 19.0166 21.7587 19.4804 22.1065 20.0601C22.4254 20.6397 22.5993 21.2774 22.5993 21.944V22.2339C22.5993 22.6396 22.4543 22.9584 22.1935 23.2193C21.9037 23.5091 21.5848 23.6251 21.208 23.6251H11.0057C10.5999 23.6251 10.2811 23.5091 10.0202 23.2193C9.7304 22.9584 9.61447 22.6396 9.61447 22.2339V21.944C9.61447 21.2774 9.75939 20.6397 10.1072 20.0601C10.426 19.4804 10.8608 19.0166 11.4405 18.6688C12.0201 18.321 12.6578 18.1181 13.3534 18.0892L16.1069 20.8426L18.8603 18.0892ZM10.0202 11.104C9.84634 11.075 9.70142 10.9881 9.64345 10.8432C9.58548 10.7272 9.58548 10.5823 9.64345 10.4374C9.70142 10.3215 9.84634 10.2345 10.0202 10.1765L15.5272 8.84328C15.904 8.78531 16.2808 8.78531 16.6865 8.84328L22.1935 10.1765C22.3674 10.2345 22.4833 10.3215 22.5413 10.4374C22.5993 10.5823 22.5993 10.7272 22.5413 10.8432C22.4833 10.9881 22.3674 11.075 22.1935 11.104L19.411 11.7707C19.6719 12.3214 19.8168 12.872 19.8168 13.4227C19.8168 14.1184 19.6429 14.727 19.3241 15.3067C18.9763 15.8864 18.5415 16.3211 17.9618 16.64C17.3822 16.9878 16.7735 17.1327 16.1069 17.1327C15.4113 17.1327 14.8026 16.9878 14.2229 16.64C13.6432 16.3211 13.2085 15.8864 12.8897 15.3067C12.5418 14.727 12.3969 14.1184 12.3969 13.4227C12.3969 12.872 12.5129 12.3214 12.8027 11.7707L10.8898 11.3069V12.8431C11.1216 12.988 11.2376 13.1909 11.2376 13.4227C11.2376 13.6546 11.1216 13.8575 10.9187 14.0024L11.3535 15.7994C11.3825 15.9154 11.3825 16.0023 11.3245 16.0893C11.2666 16.1762 11.2086 16.2052 11.1506 16.2052H9.93329C9.84634 16.2052 9.78837 16.1762 9.7304 16.0893C9.67244 16.0023 9.67244 15.9154 9.7304 15.7994L10.1652 14.0024C9.93329 13.8575 9.84634 13.6546 9.84634 13.4227C9.84634 13.1909 9.96227 12.988 10.1941 12.8431V11.133L10.0202 11.104Z" fill="#4F4F4F"/>
</svg>
