<svg width="28" height="50" viewBox="0 0 28 50" fill="none" xmlns="http://www.w3.org/2000/svg">
<path opacity="0.2" d="M1.74993 49.6843L17.4312 33.6073C18.0745 32.9509 17.615 31.8308 16.7064 31.8308H15.4557C14.6033 31.8308 14.1235 30.8253 14.6544 30.1429L22.9697 19.4423C23.5006 18.7599 23.0259 17.7544 22.1683 17.7544H17.9877C17.1454 17.7544 16.6656 16.775 17.1709 16.0873L27.7935 1.66708C28.2989 0.979412 27.8191 0 26.9768 0H10.1776C9.7896 0 9.43228 0.224015 9.26388 0.57827L1.0506 17.5356C0.713694 18.2285 1.20884 19.0412 1.96432 19.0412H5.75192C6.5074 19.0412 7.00255 19.8539 6.66565 20.5468L1.0506 32.1435C0.713694 32.8364 1.20884 33.6491 1.96432 33.6491H5.53243C6.28791 33.6491 6.77789 34.4513 6.45125 35.1442L0.111353 48.4965C-0.394001 49.554 0.938296 50.5178 1.74993 49.6843Z" fill="black"/>
</svg>
