<svg id="_0545_road_trip_1" xmlns="http://www.w3.org/2000/svg" xmlns:xlink="http://www.w3.org/1999/xlink" viewBox="0 0 500 500" data-imageid="road-trip-1-64" imageName="Road Trip 1" class="illustrations_image" style="width: 151px;"><defs><style>.cls-1_road-trip-1-64{fill:url(#linear-gradient);}.cls-1_road-trip-1-64,.cls-2_road-trip-1-64,.cls-3_road-trip-1-64,.cls-4_road-trip-1-64,.cls-5_road-trip-1-64,.cls-6_road-trip-1-64,.cls-7_road-trip-1-64,.cls-8_road-trip-1-64,.cls-9_road-trip-1-64,.cls-10_road-trip-1-64,.cls-11_road-trip-1-64,.cls-12_road-trip-1-64,.cls-13_road-trip-1-64,.cls-14_road-trip-1-64,.cls-15_road-trip-1-64,.cls-16_road-trip-1-64,.cls-17_road-trip-1-64,.cls-18_road-trip-1-64{stroke-width:0px;}.cls-2_road-trip-1-64{opacity:.18;}.cls-2_road-trip-1-64,.cls-7_road-trip-1-64{isolation:isolate;}.cls-2_road-trip-1-64,.cls-18_road-trip-1-64{fill:#68e1fd;}.cls-3_road-trip-1-64{fill:url(#linear-gradient-11-road-trip-1-64);}.cls-4_road-trip-1-64{fill:url(#linear-gradient-12-road-trip-1-64);}.cls-5_road-trip-1-64{fill:url(#linear-gradient-13-road-trip-1-64);}.cls-6_road-trip-1-64{fill:url(#linear-gradient-10-road-trip-1-64);}.cls-7_road-trip-1-64{opacity:.54;}.cls-7_road-trip-1-64,.cls-17_road-trip-1-64{fill:#fff;}.cls-8_road-trip-1-64{fill:url(#linear-gradient-4-road-trip-1-64);}.cls-9_road-trip-1-64{fill:url(#linear-gradient-2-road-trip-1-64);}.cls-10_road-trip-1-64{fill:url(#linear-gradient-3-road-trip-1-64);}.cls-11_road-trip-1-64{fill:url(#linear-gradient-8-road-trip-1-64);}.cls-12_road-trip-1-64{fill:url(#linear-gradient-9-road-trip-1-64);}.cls-13_road-trip-1-64{fill:url(#linear-gradient-7-road-trip-1-64);}.cls-14_road-trip-1-64{fill:url(#linear-gradient-5-road-trip-1-64);}.cls-15_road-trip-1-64{fill:url(#linear-gradient-6-road-trip-1-64);}.cls-16_road-trip-1-64{fill:#231f20;}</style><linearGradient id="linear-gradient-road-trip-1-64" x1="304.1" y1="3120.4" x2="353" y2="2573.6" gradientTransform="translate(-67.68 3328.86) scale(1 -1)" gradientUnits="userSpaceOnUse"><stop offset="0" stop-color="#231f20"/><stop offset=".13" stop-color="#231f20" stop-opacity=".69"/><stop offset=".25" stop-color="#231f20" stop-opacity=".32"/><stop offset="1" stop-color="#231f20" stop-opacity="0"/></linearGradient><linearGradient id="linear-gradient-2-road-trip-1-64" x1="333.85" y1="2966.71" x2="-133.89" y2="3153.02" xlink:href="#linear-gradient-road-trip-1-64"/><linearGradient id="linear-gradient-3-road-trip-1-64" x1="278.69" y1="3072.81" x2="278.69" y2="2835.93" gradientTransform="translate(-31 3367.76) scale(1 -1)" xlink:href="#linear-gradient-road-trip-1-64"/><linearGradient id="linear-gradient-4-road-trip-1-64" x1="336.78" y1="3123.67" x2="362.74" y2="2745.15" gradientTransform="translate(-31 3367.76) scale(1 -1)" xlink:href="#linear-gradient-road-trip-1-64"/><linearGradient id="linear-gradient-5-road-trip-1-64" x1="207.08" y1="3114.78" x2="233.02" y2="2736.25" gradientTransform="translate(-31 3367.76) scale(1 -1)" xlink:href="#linear-gradient-road-trip-1-64"/><linearGradient id="linear-gradient-6-road-trip-1-64" x1="221.48" y1="234.29" x2="259.6" y2="349.62" gradientUnits="userSpaceOnUse"><stop offset="0" stop-color="#fff" stop-opacity="0"/><stop offset="1" stop-color="#fff"/></linearGradient><linearGradient id="linear-gradient-7-road-trip-1-64" x1="212.1" y1="3186.73" x2="269.89" y2="2736.27" gradientTransform="translate(-31 3367.76) scale(1 -1)" xlink:href="#linear-gradient-road-trip-1-64"/><linearGradient id="linear-gradient-8-road-trip-1-64" x1="367.8" y1="3163.09" x2="425.58" y2="2712.63" xlink:href="#linear-gradient-road-trip-1-64"/><linearGradient id="linear-gradient-9-road-trip-1-64" x1="270.85" y1="3194.25" x2="328.63" y2="2743.81" gradientTransform="translate(-31 3367.76) scale(1 -1)" xlink:href="#linear-gradient-road-trip-1-64"/><linearGradient id="linear-gradient-10-road-trip-1-64" x1="298.21" y1="3111.48" x2="273.57" y2="2955.29" gradientTransform="translate(-31 3367.76) scale(1 -1)" xlink:href="#linear-gradient-road-trip-1-64"/><linearGradient id="linear-gradient-11-road-trip-1-64" x1="428.06" y1="3048.25" x2="381.69" y2="3001.61" xlink:href="#linear-gradient-road-trip-1-64"/><linearGradient id="linear-gradient-12-road-trip-1-64" x1="322.23" y1="3071.27" x2="311.62" y2="2895.56" xlink:href="#linear-gradient-road-trip-1-64"/><linearGradient id="linear-gradient-13-road-trip-1-64" x1="344.51" y1="3085.22" x2="830.34" y2="2995.6" xlink:href="#linear-gradient-road-trip-1-64"/></defs><g id="background_road-trip-1-64"><path class="cls-2_road-trip-1-64 targetColor" d="M494.9,311.55c-.39,5.93-1.24,11.82-2.53,17.62-4.37,20.08-13.39,39.34-22.2,57.95-5.58,11.89-12.56,23.52-22.9,31.75-4.26,3.42-9.66,6.87-15.04,8.14-4.14,1.13-8.2,2.53-12.16,4.19-1.7.53-3.47.8-5.25.81-12.54.62-25.1.03-37.53-1.76-11.99-1.73-23.03-5.7-34.73-8.78-24.01-6.34-48.86-11.29-73.84-9-52.28,4.79-98.62,40.6-151.09,41.67-32.47.66-104.98-17.77-104.97-87.42,0-14.56,8.57-25.87,16.65-37.55,5.58-8,10.85-16.18,13-25.7,1.55-7.23,1.7-14.7.42-21.99-2.69-17.24-11.07-35.1-14.42-59.15-2.43-17.34-2.25-37.92,4.54-63.8,6.34-24.14,26.15-42.02,44.03-59.44,45.94-44.74,188.91-15.93,248.4-8.18,112.4,14.59,176.86,105.71,169.6,220.66Z" style="fill: rgb(133, 105, 241);"/><path class="cls-18_road-trip-1-64 targetColor" d="M492.38,329.16c-1.38,6.24-3.13,12.39-5.25,18.41-3.96,10.99-8.48,21.78-13.54,32.3-1.13,2.42-2.28,4.83-3.41,7.23l-.82,1.76c-5.5,11.29-12.3,22.2-22.07,30.03-4.26,3.42-9.66,6.87-15.04,8.14-4.14,1.13-8.2,2.53-12.16,4.19-1.7.53-3.47.8-5.25.81-12.54.62-25.1.03-37.53-1.76-11.99-1.73-23.03-5.7-34.73-8.78-24.01-6.34-48.86-11.29-73.84-9-52.28,4.79-98.62,40.6-151.09,41.67-25.81.52-76.91-11.01-96.79-50.75-3.68-7.39-6.13-15.33-7.26-23.51-.62-4.36-.93-8.76-.92-13.16.1-6.68,1.79-13.24,4.93-19.14,3.48-6.4,7.4-12.56,11.73-18.41l463.04-.03Z" style="fill: rgb(133, 105, 241);"/><path class="cls-1_road-trip-1-64" d="M487.13,347.58c-3.96,10.99-8.48,21.78-13.54,32.3H13.61c-.62-4.36-.93-8.76-.92-13.16.1-6.68,1.79-13.24,4.93-19.14h469.52Z"/><path class="cls-7_road-trip-1-64" d="M247.97,266.44c-9.49,9.42-23.83,12.02-37.2,11.96s-26.82-2.3-40.08-.56c-8.49,1.12-16.75,3.83-25.21,4.66s-17.07-.24-25.63-.47c-11.96-.32-23.9,1.01-35.86,1.4-13.77.5-27.56-.17-41.23-2-2.69-17.24-11.07-35.1-14.42-59.15,1.34,1.49,3.14,2.47,5.11,2.79-.31-4.93-.4-10.16,2.14-14.39,1.21-2,3.08-3.52,5.28-4.3,1.8-.61,5.37.47,6.67-.61s.54-5.74.85-7.58c1.11-6.89,5.41-12.86,11.6-16.08,2.28-1.21,4.75-2.01,7.3-2.37,3.51-.41,7.07-.19,10.5.66,6.4,1.29,12.21,4.6,16.58,9.44,4.19,4.94,6.18,11.92,4.29,18.15,3.93-.93,8.06.19,10.99,2.97.75.74,1.39,1.57,1.91,2.48-.01-1.58.22-3.15.7-4.65,2.5-7.72,13.58-8.46,19.54-4.43,5.08,3.48,7.64,9.77,7.93,15.98,2.05-5.4,9.77-6.77,14.7-3.74,4.93,3.03,7.32,8.93,8.22,14.64,3.81-5.08,8.54-9.38,13.96-12.69,2.44-1.69,5.28-2.7,8.24-2.93,3.16.18,6.21,1.21,8.82,2.99,4.98,2.93,9.54,6.53,13.56,10.68,3.41,3.22,5.97,7.24,7.44,11.7,1.24,4.5.5,9.77-2.79,13.05,3.99-1.84,8.81-3.67,12.56-1.4,2.04,1.21,3.28,3.38,4.75,5.24,4.55,5.68,11.52,8.85,18.79,8.56Z"/><path class="cls-17_road-trip-1-64" d="M272.28,181.6c-3.16,11,4.09,23.89,15.12,26.89,8.71,2.37,18.53-.75,26.73,2.99,3.28,1.51,6,3.99,8.93,6.09,11.93,8.35,27.17,10.38,40.86,5.44,2.37-1.04,4.83-1.87,7.36-2.46,4.54-.78,9.13.68,13.65,1.55,9.61,1.86,19.54,1.1,28.76-2.18,8.47-3.02,17.3-10.93,14.57-19.54-2.22-6.98-10.47-9.53-16.75-13.35-13.25-8.07-19.89-24.68-33.78-31.56-13.46-6.67-31.69-.99-38.98,12.13-5.06-7.04-14.12-9.95-22.34-7.18-13.54,4.96-38.82,2.72-44.14,21.18Z"/><path class="cls-7_road-trip-1-64" d="M469.36,388.87c-5.5,11.29-12.3,22.2-22.07,30.03-4.26,3.42-9.66,6.87-15.04,8.14-4.14,1.13-8.2,2.53-12.16,4.19-1.7.53-3.47.8-5.25.81-12.54.62-25.1.03-37.53-1.76-11.99-1.73-23.03-5.7-34.73-8.78-24.01-6.34-48.86-11.29-73.84-9-52.28,4.79-98.62,40.6-151.09,41.67-25.81.52-76.91-11.01-96.79-50.75,13.42-2.22,32.11,1.23,42.03-2.36,15.26-5.51,29.67-14.31,45.82-15.82,30.43-2.79,61.61,20.69,89.86,9.02,11.92-4.91,22.48-15.9,35.25-14.17,4.38.59,8.38,2.68,12.37,4.61,18.44,8.92,38.15,14.96,58.42,17.91,7.68,1.12,15.55,1.77,23.17.31,15.47-2.97,29.32-14.53,44.98-13.22,10.65.89,19.95,7.65,30.43,9.77,13.78,2.72,27.64-2.79,41.07-6.98,8.01-2.47,16.82-4.3,25.07-3.62Z"/></g><g id="surfboard_road-trip-1-64"><path class="cls-18_road-trip-1-64 targetColor" d="M92.89,356.83s-27.92-58.76,4.08-124.25c0,0,31.69,52.09,4.33,124.25h-8.4Z" style="fill: rgb(133, 105, 241);"/><path class="cls-9_road-trip-1-64" d="M96.96,232.63v124.25h4.33s26.32-63.32-4.33-124.25Z"/></g><g id="car_road-trip-1-64"><rect class="cls-18_road-trip-1-64 targetColor" x="156.03" y="338.42" width="183.33" height="18.33" style="fill: rgb(133, 105, 241);"/><rect class="cls-10_road-trip-1-64" x="156.03" y="338.42" width="183.33" height="18.33"/><path class="cls-18_road-trip-1-64 targetColor" d="M361.33,319.95v36.81h-27.11l-5.12-11.82c-1.18-2.72-3.87-4.47-6.84-4.45l-16.75.13c-2.94.02-5.59,1.79-6.74,4.5l-5.03,11.66h-85.98c-1.49,0-2.9-.69-3.83-1.87l-5.46-11.39c-.9-1.17-2.31-1.84-3.78-1.81l-23.02.18c-1.39.03-2.69.67-3.56,1.75l-6.17,11.34c-.92,1.14-2.31,1.81-3.78,1.81h-22.04v-40.49c0-21.23,8.56-50.87,23.97-50.87h157.64c12.62-.03,24.1,7.34,29.32,18.83l12.56,27.67c1.14,2.53,1.73,5.27,1.73,8.04Z" style="fill: rgb(133, 105, 241);"/><rect class="cls-18_road-trip-1-64 targetColor" x="128.64" y="351.04" width="17.49" height="6.88" rx="2.57" ry="2.57" style="fill: rgb(133, 105, 241);"/><rect class="cls-18_road-trip-1-64 targetColor" x="349.16" y="351.04" width="17.49" height="6.88" rx="2.57" ry="2.57" style="fill: rgb(133, 105, 241);"/><circle class="cls-16_road-trip-1-64" cx="313.63" cy="357.92" r="15.2"/><circle class="cls-18_road-trip-1-64 targetColor" cx="313.63" cy="357.92" r="10.19" style="fill: rgb(133, 105, 241);"/><circle class="cls-8_road-trip-1-64" cx="313.63" cy="358.5" r="5.95"/><circle class="cls-16_road-trip-1-64" cx="183.31" cy="357.92" r="15.2"/><circle class="cls-18_road-trip-1-64 targetColor" cx="183.31" cy="357.92" r="10.19" style="fill: rgb(133, 105, 241);"/><circle class="cls-14_road-trip-1-64" cx="183.31" cy="358.5" r="5.95"/><path class="cls-18_road-trip-1-64 targetColor" d="M359.59,311.88l1.4,4.37h-224.87c0-21.23,8.56-50.87,23.97-50.87h157.64c12.62-.03,24.1,7.34,29.32,18.83l12.55,27.67Z" style="fill: rgb(133, 105, 241);"/><path class="cls-15_road-trip-1-64" d="M359.59,311.88l1.4,4.37h-224.87c0-21.23,8.56-50.87,23.97-50.87h157.64c12.62-.03,24.1,7.34,29.32,18.83l12.55,27.67Z"/><rect class="cls-18_road-trip-1-64 targetColor" x="148.69" y="280.36" width="9.44" height="1.49" style="fill: rgb(133, 105, 241);"/><rect class="cls-18_road-trip-1-64 targetColor" x="148.69" y="284.21" width="9.44" height="1.49" style="fill: rgb(133, 105, 241);"/><rect class="cls-18_road-trip-1-64 targetColor" x="148.69" y="288.05" width="9.44" height="1.49" style="fill: rgb(133, 105, 241);"/><rect class="cls-18_road-trip-1-64 targetColor" x="148.69" y="291.9" width="9.44" height="1.49" style="fill: rgb(133, 105, 241);"/><rect class="cls-18_road-trip-1-64 targetColor" x="148.69" y="295.76" width="9.44" height="1.49" style="fill: rgb(133, 105, 241);"/><rect class="cls-18_road-trip-1-64 targetColor" x="148.69" y="299.61" width="9.44" height="1.49" style="fill: rgb(133, 105, 241);"/><rect class="cls-18_road-trip-1-64 targetColor" x="173.12" y="281.1" width="44.48" height="22.06" rx="3.76" ry="3.76" style="fill: rgb(133, 105, 241);"/><path class="cls-18_road-trip-1-64 targetColor" d="M335.89,303.16h-36.97c-2.07,0-3.76-1.68-3.76-3.76,0,0,0,0,0-.01v-14.53c0-2.07,1.66-3.75,3.73-3.76,0,0,.02,0,.03,0h30.35c2.08,0,2.79,1.19,3.76,3.76l5.98,13.14c.87,1.8.11,3.96-1.69,4.83-.29.14-.6.24-.92.3-.17.03-.33.04-.5.04Z" style="fill: rgb(133, 105, 241);"/><rect class="cls-18_road-trip-1-64 targetColor" x="226.49" y="281.1" width="57.15" height="22.06" rx="4.26" ry="4.26" style="fill: rgb(133, 105, 241);"/><rect class="cls-13_road-trip-1-64" x="173.12" y="281.1" width="44.48" height="22.06" rx="3.76" ry="3.76"/><path class="cls-11_road-trip-1-64" d="M335.89,303.16h-36.97c-2.07,0-3.76-1.68-3.76-3.76,0,0,0,0,0-.01v-14.53c0-2.07,1.66-3.75,3.73-3.76,0,0,.02,0,.03,0h30.35c2.08,0,2.79,1.19,3.76,3.76l5.98,13.14c.87,1.8.11,3.96-1.69,4.83-.29.14-.6.24-.92.3-.17.03-.33.04-.5.04Z"/><rect class="cls-12_road-trip-1-64" x="226.49" y="281.1" width="57.15" height="22.06" rx="4.26" ry="4.26"/><path class="cls-18_road-trip-1-64 targetColor" d="M136.11,329.42h1.87c1.25,0,2.26,1.01,2.26,2.26v12.77c0,1.25-1.01,2.26-2.26,2.26h-1.87v-17.3h0Z" style="fill: rgb(133, 105, 241);"/><rect class="cls-6_road-trip-1-64" x="222.06" y="316.25" width="64.99" height="40.49"/><path class="cls-18_road-trip-1-64 targetColor" d="M355.61,303.16h-2.67c-1.83,0-3.5-1.06-4.3-2.71l-7.59-15.8c-.59-1.24-.05-2.72,1.19-3.31.33-.15.69-.24,1.05-.24h2.11l10.22,22.06Z" style="fill: rgb(133, 105, 241);"/><path class="cls-3_road-trip-1-64" d="M355.61,303.16h-2.67c-1.83,0-3.5-1.06-4.3-2.71l-7.59-15.8c-.59-1.24-.05-2.72,1.19-3.31.33-.15.69-.24,1.05-.24h2.11l10.22,22.06Z"/><path class="cls-4_road-trip-1-64" d="M360.97,336.49v20.27h-26.75l-5.12-11.82c-1.18-2.72-3.87-4.47-6.84-4.45l-16.75.13c-2.94.02-5.59,1.79-6.74,4.5l-5.03,11.66h-85.98c-1.49,0-2.9-.69-3.83-1.87l-5.46-11.39c-.9-1.17-2.31-1.84-3.78-1.81l-23.02.18c-1.39.03-2.69.67-3.56,1.75l-6.17,11.34c-.92,1.14-2.31,1.81-3.78,1.81h-20.77v-20.24l223.59-.03Z"/></g><g id="tree_road-trip-1-64"><path class="cls-18_road-trip-1-64 targetColor" d="M398.13,344.97s32.49-119.43-19.39-161.48c0,0,60.71,27.03,33.2,161.8l-13.81-.32Z" style="fill: rgb(133, 105, 241);"/><path class="cls-5_road-trip-1-64" d="M398.13,344.97s32.49-119.43-19.39-161.48c0,0,60.71,27.03,33.2,161.8l-13.81-.32Z"/><path class="cls-18_road-trip-1-64 targetColor" d="M346.06,165.65c-4.82-9.22-6.05-19.9-3.46-29.97,9.77,9.53,20.44,18.22,31.03,26.89-1.74-7.89,1.44-16.05,8.06-20.69l7.36,16.5c3.96-4.12,8.27-7.88,12.89-11.25,3.57-2.61,8.18-5.07,12.23-3.27-4.58,11.17-9.6,22.1-15.06,32.81-.25-2.09.69-4.15,2.44-5.32,1.74-1.12,3.69-1.87,5.74-2.21,3.03-.79,6.14-1.23,9.27-1.31,6.62,0,12.98,2.79,18.32,6.76,5.19,4.12,9.94,8.77,14.16,13.88-12.1-.7-24.96-1.23-35.53,4.69,4.37,3.91,7.56,8.95,9.24,14.56-10.5-7.25-21.61-14.73-34.3-15.91,2.05,4.4,3.32,9.13,3.78,13.96,1.45,11.4.94,22.97-1.52,34.2-12-6.82-20.49-18.45-23.34-31.96-13.89,7.42-24.87,19.31-31.17,33.74-4.84-8.66-8.38-18.86-5.78-28.42,2.01-7.27,7.44-13.25,13.82-17.28,6.38-4.03,13.68-6.34,20.94-8.28l-18.15-3.73c4.36-.99,15.02-3.13,18.75,0-8.29-2.97-15.61-10.69-19.7-18.39Z" style="fill: rgb(133, 105, 241);"/></g></svg>